<?xml version="1.0" encoding="utf-8"?>
<!-- Generator: Adobe Illustrator 18.1.1, SVG Export Plug-In . SVG Version: 6.00 Build 0)  -->
<svg version="1.0" id="Layer_1" xmlns="http://www.w3.org/2000/svg" xmlns:xlink="http://www.w3.org/1999/xlink" x="0px" y="0px"
	 viewBox="0 0 22.5 19.7" enable-background="new 0 0 22.5 19.7" xml:space="preserve">
<g>
	<g>
		<path fill="#5A5A5A" d="M21.1,19.7H1.4c-0.8,0-1.4-0.6-1.4-1.4V2.8C0,2,0.6,1.4,1.4,1.4h19.7c0.8,0,1.4,0.6,1.4,1.4v15.6
			C22.5,19.1,21.9,19.7,21.1,19.7z M1.4,1.9c-0.5,0-0.9,0.4-0.9,0.9v15.6c0,0.5,0.4,0.9,0.9,0.9h19.7c0.5,0,0.9-0.4,0.9-0.9V2.8
			c0-0.5-0.4-0.9-0.9-0.9H1.4z"/>
	</g>
	<g>
		<g>
			<rect x="4.9" y="0" fill="#5A5A5A" width="1" height="3.4"/>
		</g>
		<g>
			<rect x="10.7" y="0" fill="#5A5A5A" width="1" height="3.4"/>
		</g>
		<g>
			<rect x="16.6" y="0" fill="#5A5A5A" width="1" height="3.4"/>
		</g>
	</g>
	<g>
		<path fill="#5A5A5A" d="M14.9,15.7c0.9,0,1.8,0,2.7,0c0-0.6,0-1.4,0-2c-0.9,0-1.8,0-2.7,0C14.9,14.5,14.9,15.1,14.9,15.7z"/>
		<path fill="#5A5A5A" d="M9.9,15.7c0.9,0,1.8,0,2.7,0c0-0.6,0-1.4,0-2c-0.9,0-1.8,0-2.7,0C9.9,14.3,9.9,15.1,9.9,15.7z"/>
		<path fill="#5A5A5A" d="M5.1,15.7c0.9,0,1.8,0,2.7,0c0-0.6,0-1.4,0-2c-1.1,0-2,0-2.7,0C5.1,14.5,5.1,15.1,5.1,15.7z"/>
		<path fill="#5A5A5A" d="M14.9,12.1c1.1,0,1.8,0,2.7,0c0-0.6,0-1.4,0-2c-0.9,0-1.8,0-2.7,0C14.9,10.9,14.9,11.5,14.9,12.1z"/>
		<path fill="#5A5A5A" d="M9.9,12.2c0.9,0,1.8,0,2.7,0c0-0.6,0-1.4,0-2c-0.9,0-1.8,0-2.7,0C9.9,11,9.9,11.6,9.9,12.2z"/>
		<path fill="#5A5A5A" d="M7.6,10.3c-0.9,0-1.8,0-2.7,0c0,0.8,0,1.4,0,2c0.9,0,1.8,0,2.7,0C7.6,11.6,7.6,10.9,7.6,10.3z"/>
		<path fill="#5A5A5A" d="M14.9,8.6c0.9,0,1.8,0,2.7,0c0-0.6,0-1.4,0-2c-0.9,0-1.8,0-2.7,0C14.9,7.4,14.9,8,14.9,8.6z"/>
		<path fill="#5A5A5A" d="M9.9,8.6c0.9,0,1.8,0,2.7,0c0-0.6,0-1.2,0-2c-0.9,0-1.8,0-2.7,0C9.9,7.4,9.9,8,9.9,8.6z"/>
		<path fill="#5A5A5A" d="M5.1,8.6c0.9,0,1.8,0,2.7,0c0-0.8,0-1.4,0-2c-1.1,0-2,0-2.7,0C5.1,7.4,5.1,8,5.1,8.6z"/>
	</g>
</g>
</svg>
