<?xml version="1.0" encoding="utf-8"?>
<!-- Generator: Adobe Illustrator 18.1.1, SVG Export Plug-In . SVG Version: 6.00 Build 0)  -->
<svg version="1.1" id="Layer_1" xmlns="http://www.w3.org/2000/svg" xmlns:xlink="http://www.w3.org/1999/xlink" x="0px" y="0px"
	 viewBox="0 0 1000 1000" enable-background="new 0 0 1000 1000" xml:space="preserve">
<g>
	<g>
		<path fill="#FFFFFF" d="M568,504L984,80c16-16,16-48,0-64s-48-16-72,0L504,432L80,16C64,0,32,0,16,16S0,64,16,88l416,416L16,920
			c-16,16-16,48,0,72c8,8,24,16,32,16c16,0,24-8,32-16l416-416l416,416c8,8,24,16,32,16c16,0,24-8,32-16c16-16,16-48,0-72L568,504z"
			/>
	</g>
</g>
</svg>
