<?xml version="1.0" encoding="utf-8"?>
<!-- Generator: Adobe Illustrator 18.1.1, SVG Export Plug-In . SVG Version: 6.00 Build 0)  -->
<svg version="1.0" id="Layer_1" xmlns="http://www.w3.org/2000/svg" xmlns:xlink="http://www.w3.org/1999/xlink" x="0px" y="0px"
	 viewBox="0 0 14.4 17.3" enable-background="new 0 0 14.4 17.3" xml:space="preserve">
<g>
	<g>
		<path d="M5.7,17.3c-0.1,0-0.2,0-0.3-0.1c-0.2-0.1-0.3-0.3-0.3-0.5v-6.5L0,3.1l0-0.1l0-2.5C0,0.3,0.3,0,0.6,0h13.3
			c0.3,0,0.6,0.3,0.6,0.6l0,2.7c0,0,0,0.1,0,0.1l-0.3-0.1l0.2,0.1l-5.1,6.8v4.9c0,0.2-0.1,0.4-0.3,0.5l-3,1.6
			C5.9,17.3,5.8,17.3,5.7,17.3z M0.6,0.5C0.5,0.5,0.5,0.5,0.6,0.5l0,2.6L5.7,10v6.7c0,0,0,0,0,0.1l0,0c0,0,0,0,0,0l3-1.6
			c0,0,0,0,0-0.1V10l0-0.1l5.1-7l0-2.4c0,0,0-0.1-0.1-0.1H0.6z"/>
	</g>
</g>
</svg>
