<?xml version="1.0" encoding="utf-8"?>
<!-- Generator: Adobe Illustrator 17.1.0, SVG Export Plug-In . SVG Version: 6.00 Build 0)  -->
<!DOCTYPE svg PUBLIC "-//W3C//DTD SVG 1.1//EN" "http://www.w3.org/Graphics/SVG/1.1/DTD/svg11.dtd">
<svg version="1.1" id="Layer_1" xmlns="http://www.w3.org/2000/svg" xmlns:xlink="http://www.w3.org/1999/xlink" x="0px" y="0px"
	 viewBox="0 0 19 19" style="enable-background:new 0 0 19 19;" xml:space="preserve">
<style type="text/css">
	.st0{fill:none;stroke:#175B98;stroke-width:1.3;stroke-miterlimit:10;}
	.st1{fill:#175B98;}
	.st2{fill:none;stroke:#B2B2B2;stroke-width:1.3;stroke-miterlimit:10;}
	.st3{fill:#B2B2B2;}
	.st4{fill:none;stroke:#000000;stroke-linecap:round;stroke-linejoin:round;stroke-miterlimit:10;}
	.st5{fill:none;stroke:#000000;stroke-width:1.3;stroke-miterlimit:10;}
	.st6{fill:none;stroke:#999999;stroke-width:1.3;stroke-miterlimit:10;}
	.st7{fill:#999999;}
	.st8{clip-path:url(#SVGID_2_);}
	.st9{fill:none;stroke:#9A9A9A;stroke-width:1.3;stroke-miterlimit:10;}
	.st10{fill:none;stroke:#9A9A9A;stroke-linecap:round;stroke-linejoin:round;stroke-miterlimit:10;}
	.st11{fill:none;stroke:#9A9A9A;stroke-width:0.7836;stroke-miterlimit:10;}
	.st12{fill:none;stroke:#9A9A9A;stroke-width:0.5;stroke-miterlimit:10;}
	.st13{fill:none;stroke:#9A9A9A;stroke-width:0.75;stroke-miterlimit:10;}
	.st14{fill:none;stroke:#9A9A9A;stroke-width:1.1;stroke-miterlimit:10;}
	.st15{fill:#1D4139;}
	.st16{fill:#FFC249;}
	.st17{opacity:0.2;fill:#231F20;}
	.st18{fill:#0D588E;}
	.st19{fill:#236CA8;}
	.st20{fill:#EFEFEF;}
	.st21{fill:#C6C6C6;}
	.st22{fill:#1A65A4;}
	.st23{fill:#231F20;}
	.st24{fill:#FFFFFF;}
	.st25{fill:#F79F3D;}
	.st26{clip-path:url(#SVGID_4_);}
	.st27{fill:#2776BE;}
	.st28{fill:#F8A03C;}
	.st29{fill:url(#SVGID_5_);}
	.st30{fill:none;stroke:#2776BE;stroke-width:1.3062;stroke-linecap:round;stroke-miterlimit:10;}
	.st31{fill:#FFC24A;stroke:#2776BE;stroke-width:0.9797;stroke-miterlimit:10;}
	.st32{clip-path:url(#SVGID_7_);}
	.st33{fill:url(#SVGID_8_);}
	.st34{clip-path:url(#SVGID_10_);}
	.st35{fill:none;stroke:#2776BE;stroke-width:1.2171;stroke-linecap:round;stroke-miterlimit:10;}
	.st36{fill:#FFC24A;stroke:#2776BE;stroke-width:0.9128;stroke-miterlimit:10;}
	.st37{fill:none;stroke:#2776BE;stroke-width:1.2171;stroke-linecap:round;stroke-linejoin:round;stroke-miterlimit:10;}
	.st38{opacity:0.2;}
	.st39{fill:none;stroke:#000000;stroke-width:0.9128;stroke-miterlimit:10;}
	.st40{fill:#FFC24A;}
	.st41{fill:none;stroke:#2675B2;stroke-width:0.9128;stroke-miterlimit:10;}
	.st42{fill:url(#SVGID_11_);}
	.st43{fill:url(#SVGID_12_);}
	.st44{fill:url(#SVGID_13_);}
	.st45{fill:none;stroke:#2776BE;stroke-width:1.271;stroke-linecap:round;stroke-miterlimit:10;}
	.st46{fill:#FFC24A;stroke:#2776BE;stroke-width:0.9532;stroke-miterlimit:10;}
	.st47{fill-rule:evenodd;clip-rule:evenodd;fill:#FFFFFF;}
</style>
<g>
	<circle class="st7" cx="9.5" cy="9.5" r="9.5"/>
	<g>
		<path class="st24" d="M7.5,8.9v1.4h2.4c-0.1,0.6-0.7,1.8-2.4,1.8C6,12.1,4.9,11,4.9,9.5S6,6.8,7.5,6.8c0.8,0,1.4,0.3,1.7,0.7
			l1.1-1.1C9.6,5.7,8.6,5.3,7.5,5.3c-2.3,0-4.2,1.9-4.2,4.2s1.9,4.2,4.2,4.2c2.4,0,4.1-1.7,4.1-4.1c0-0.3,0-0.5-0.1-0.7H7.5L7.5,8.9
			z"/>
		<polygon class="st24" points="13.6,11.1 13.6,9.9 12.4,9.9 12.4,9.1 13.6,9.1 13.6,7.8 14.5,7.8 14.5,9.1 15.7,9.1 15.7,9.9 
			14.5,9.9 14.5,11.1 		"/>
	</g>
</g>
</svg>
