<?xml version="1.0" encoding="utf-8"?>
<!-- Generator: Adobe Illustrator 17.1.0, SVG Export Plug-In . SVG Version: 6.00 Build 0)  -->
<!DOCTYPE svg PUBLIC "-//W3C//DTD SVG 1.1//EN" "http://www.w3.org/Graphics/SVG/1.1/DTD/svg11.dtd">
<svg version="1.1" id="Layer_1" xmlns="http://www.w3.org/2000/svg" xmlns:xlink="http://www.w3.org/1999/xlink" x="0px" y="0px"
	 viewBox="0 0 18.9 16.9" style="enable-background:new 0 0 18.9 16.9;" xml:space="preserve">
<style type="text/css">
	.st0{fill:none;stroke:#175B98;stroke-width:1.3;stroke-miterlimit:10;}
	.st1{fill:#175B98;}
	.st2{fill:none;stroke:#B2B2B2;stroke-width:1.3;stroke-miterlimit:10;}
	.st3{fill:#B2B2B2;}
	.st4{fill:none;stroke:#000000;stroke-linecap:round;stroke-linejoin:round;stroke-miterlimit:10;}
	.st5{fill:none;stroke:#000000;stroke-width:1.3;stroke-miterlimit:10;}
	.st6{fill:none;stroke:#999999;stroke-width:1.3;stroke-miterlimit:10;}
	.st7{fill:#999999;}
</style>
<path class="st7" d="M0.7,10.1h1.5v6.2c0,0.4,0.3,0.7,0.7,0.7h4.5c0.4,0,0.7-0.3,0.7-0.7v-4.5h2.8v4.5c0,0.4,0.3,0.7,0.7,0.7h4.3
	c0.4,0,0.7-0.3,0.7-0.7v-6.2h1.9c0.3,0,0.5-0.2,0.6-0.4c0.1-0.2,0-0.5-0.1-0.7l-8.6-8.7c-0.3-0.3-0.7-0.3-0.9,0l-9,8.7
	C0,9.1-0.1,9.4,0,9.7C0.1,9.9,0.4,10.1,0.7,10.1L0.7,10.1z M9.7,1.6l7.1,7.1h-0.9c-0.4,0-0.7,0.3-0.7,0.7v6.2h-3v-4.5
	c0-0.4-0.3-0.7-0.7-0.7H7.4c-0.4,0-0.7,0.3-0.7,0.7v4.5H3.5V9.4c0-0.4-0.3-0.7-0.7-0.7H2.3L9.7,1.6z M9.7,1.6"/>
</svg>
