<?xml version="1.0" encoding="utf-8"?>
<!-- Generator: Adobe Illustrator 17.1.0, SVG Export Plug-In . SVG Version: 6.00 Build 0)  -->
<!DOCTYPE svg PUBLIC "-//W3C//DTD SVG 1.1//EN" "http://www.w3.org/Graphics/SVG/1.1/DTD/svg11.dtd">
<svg version="1.1" id="Layer_1" xmlns="http://www.w3.org/2000/svg" xmlns:xlink="http://www.w3.org/1999/xlink" x="0px" y="0px"
	 viewBox="0 0 19 19" style="enable-background:new 0 0 19 19;" xml:space="preserve">
<style type="text/css">
	.st0{fill:none;stroke:#175B98;stroke-width:1.3;stroke-miterlimit:10;}
	.st1{fill:#175B98;}
	.st2{fill:none;stroke:#B2B2B2;stroke-width:1.3;stroke-miterlimit:10;}
	.st3{fill:#B2B2B2;}
	.st4{fill:none;stroke:#000000;stroke-linecap:round;stroke-linejoin:round;stroke-miterlimit:10;}
	.st5{fill:none;stroke:#000000;stroke-width:1.3;stroke-miterlimit:10;}
	.st6{fill:none;stroke:#999999;stroke-width:1.3;stroke-miterlimit:10;}
	.st7{fill:#999999;}
</style>
<g>
	<path class="st7" d="M2,3.7C1.2,4.7,0.7,5.8,0.3,7h4.9L2,3.7z M2,3.7"/>
	<path class="st7" d="M18.6,7c-0.3-1.2-0.9-2.3-1.6-3.3L13.7,7H18.6z M18.6,7"/>
	<path class="st7" d="M0.3,12c0.3,1.2,0.9,2.3,1.6,3.3L5.3,12H0.3z M0.3,12"/>
	<path class="st7" d="M15.3,2c-1-0.7-2.1-1.3-3.3-1.6v4.9L15.3,2z M15.3,2"/>
	<path class="st7" d="M3.7,17c1,0.7,2.1,1.3,3.3,1.6v-4.9L3.7,17z M3.7,17"/>
	<path class="st7" d="M7,0.3C5.8,0.7,4.7,1.2,3.7,2L7,5.3V0.3z M7,0.3"/>
	<path class="st7" d="M12,18.6c1.2-0.3,2.3-0.9,3.3-1.6L12,13.7V18.6z M12,18.6"/>
	<path class="st7" d="M13.7,12l3.3,3.3c0.7-1,1.3-2.1,1.6-3.3H13.7z M13.7,12"/>
	<g>
		<path class="st7" d="M18.9,8.2h-8.2V0.1C10.3,0,9.9,0,9.5,0C9.1,0,8.6,0,8.2,0.1v8.2H0.1C0,8.6,0,9.1,0,9.5c0,0.4,0,0.8,0.1,1.2
			h8.2v8.2C8.6,18.9,9.1,19,9.5,19c0.4,0,0.8,0,1.2-0.1v-8.2h8.2c0.1-0.4,0.1-0.8,0.1-1.2C19,9.1,18.9,8.6,18.9,8.2L18.9,8.2z
			 M18.9,8.2"/>
		<path class="st7" d="M12,12l4.2,4.2c0.2-0.2,0.4-0.4,0.6-0.6L13.1,12H12z M12,12"/>
		<path class="st7" d="M7,12L7,12l-4.2,4.2c0.2,0.2,0.4,0.4,0.6,0.6L7,13.1V12z M7,12"/>
		<path class="st7" d="M7,7L2.8,2.8C2.6,3,2.4,3.2,2.2,3.4L5.8,7H7z M7,7"/>
		<path class="st7" d="M12,7l4.2-4.2c-0.2-0.2-0.4-0.4-0.6-0.6L12,5.8V7z M12,7"/>
	</g>
</g>
</svg>
