<?xml version="1.0" encoding="utf-8"?>
<!-- Generator: Adobe Illustrator 17.1.0, SVG Export Plug-In . SVG Version: 6.00 Build 0)  -->
<!DOCTYPE svg PUBLIC "-//W3C//DTD SVG 1.1//EN" "http://www.w3.org/Graphics/SVG/1.1/DTD/svg11.dtd">
<svg version="1.1" id="Layer_1" xmlns="http://www.w3.org/2000/svg" xmlns:xlink="http://www.w3.org/1999/xlink" x="0px" y="0px"
	 viewBox="0 0 19 15.7" style="enable-background:new 0 0 19 15.7;" xml:space="preserve">
<style type="text/css">
	.st0{fill:none;stroke:#175B98;stroke-width:1.3;stroke-miterlimit:10;}
	.st1{fill:#175B98;}
	.st2{fill:none;stroke:#B2B2B2;stroke-width:1.3;stroke-miterlimit:10;}
	.st3{fill:#B2B2B2;}
	.st4{fill:none;stroke:#000000;stroke-linecap:round;stroke-linejoin:round;stroke-miterlimit:10;}
	.st5{fill:none;stroke:#000000;stroke-width:1.3;stroke-miterlimit:10;}
	.st6{fill:none;stroke:#999999;stroke-width:1.3;stroke-miterlimit:10;}
	.st7{fill:#999999;}
</style>
<g>
	<path class="st7" d="M17.6,0H1.4C0.6,0,0,0.6,0,1.4v13c0,0.7,0.6,1.4,1.4,1.4h16.2c0.7,0,1.4-0.6,1.4-1.4v-13C19,0.6,18.3,0,17.6,0
		L17.6,0z M17.6,14.3H1.4V3.4h16.2V14.3z M17.6,14.3"/>
	<g>
		<path class="st7" d="M16.7,8.5c0.2-0.5,0.1-0.9-0.2-1.2l-0.1,0h-2.6c-0.3,0.1-0.5,0.3-0.6,0.5l-0.3,1.5c0,0.1,0.1,0.1,0.1,0.1
			c0,0,0,0,0.1,0.1l0.1,0l0.2,0.1l1.8,0c0.1,0,0.2,0.1,0.1,0.2c0,0.1-0.1,0.2-0.3,0.2l-1.9,0c0,0,0,0,0,0h-1l0.3-1.4
			c0-0.1,0-0.2,0.1-0.4c0-0.1,0-0.2,0-0.3c0-0.2-0.1-0.3-0.2-0.5l-0.2-0.1H7.1l-0.7,3.5h1.3l0.1-0.3l0.1-0.3l0.4-2.1L8.2,8
			c0.3-0.2,0.6-0.2,0.8,0l0,0.1l-0.4,2.1l0,0.2c0,0,0,0.1,0,0.1l-0.1,0.3h1.3l0.1-0.4l0.4-1.8l0-0.1c0-0.1,0-0.2,0.1-0.3
			c0-0.1,0-0.2,0-0.3l0.2-0.1l0.3,0L11,8L11.1,8l0,0.1l-0.2,0.9l-0.3,1.5l-0.1,0.2h1.4l0,0l3.7,0l0.2-0.1c0.1,0,0.1-0.1,0.2-0.1
			c0,0,0.1-0.1,0.1-0.1l0.1-0.2l0.1-0.1l0.1-0.3l0.1-0.6c0.1-0.4-0.2-0.6-0.8-0.6c-0.3,0-0.6,0-0.8,0c-0.2,0-0.4,0-0.4,0l0-0.1
			l0.1-0.4l0.1-0.1c0,0,0.1-0.1,0.1-0.1h0.6c0.1,0.1,0.1,0.3,0.1,0.5H16.7z"/>
		<path class="st7" d="M6.2,7.4L6.2,7.4C6.1,7.4,6.1,7.3,6,7.3c-0.1,0-0.2,0-0.3,0H4.2l0.4-1.9H3.4L3,7l-0.7,3.3l-0.1,0.5h3.1
			c0.1,0,0.2,0,0.3-0.1c0.1-0.1,0.2-0.2,0.3-0.3l0-0.1l0.4-2.1l0-0.1l0-0.2C6.3,7.7,6.3,7.5,6.2,7.4z M4.7,10c0,0-0.1,0.1-0.1,0.1
			c-0.1,0-0.1,0.1-0.2,0.1c-0.1,0-0.2,0-0.3,0c-0.1,0-0.2,0-0.3-0.1l0-0.1l0.4-1.8C4.2,8.1,4.2,8,4.3,8H5C5,8,5,8.1,5,8.2L4.7,10z"
			/>
	</g>
</g>
</svg>
