<?xml version="1.0" encoding="utf-8"?>
<!-- Generator: Adobe Illustrator 17.1.0, SVG Export Plug-In . SVG Version: 6.00 Build 0)  -->
<!DOCTYPE svg PUBLIC "-//W3C//DTD SVG 1.1//EN" "http://www.w3.org/Graphics/SVG/1.1/DTD/svg11.dtd">
<svg version="1.1" id="Layer_1" xmlns="http://www.w3.org/2000/svg" xmlns:xlink="http://www.w3.org/1999/xlink" x="0px" y="0px"
	 viewBox="0 0 19 19" style="enable-background:new 0 0 19 19;" xml:space="preserve">
<style type="text/css">
	.st0{fill:none;stroke:#175B98;stroke-width:1.3;stroke-miterlimit:10;}
	.st1{fill:#175B98;}
	.st2{fill:none;stroke:#B2B2B2;stroke-width:1.3;stroke-miterlimit:10;}
	.st3{fill:#B2B2B2;}
	.st4{fill:none;stroke:#000000;stroke-linecap:round;stroke-linejoin:round;stroke-miterlimit:10;}
	.st5{fill:none;stroke:#000000;stroke-width:1.3;stroke-miterlimit:10;}
	.st6{fill:none;stroke:#999999;stroke-width:1.3;stroke-miterlimit:10;}
	.st7{fill:#999999;}
</style>
<path class="st7" d="M18.8,17.8l-4.5-4.5c1.2-1.5,1.9-3.3,1.9-5.2c0-4.5-3.6-8.1-8.1-8.1C3.6,0,0,3.6,0,8.1c0,4.5,3.6,8.1,8.1,8.1
	c1.9,0,3.8-0.7,5.2-1.9l4.5,4.5c0.1,0.1,0.3,0.2,0.5,0.2c0.2,0,0.3-0.1,0.5-0.2C19,18.5,19,18.1,18.8,17.8z M8.1,1.3
	c3.7,0,6.8,3,6.8,6.8c0,3.7-3,6.8-6.8,6.8c-3.7,0-6.8-3-6.8-6.8C1.3,4.4,4.4,1.3,8.1,1.3z"/>
</svg>
