<?xml version="1.0" encoding="utf-8"?>
<!-- Generator: Adobe Illustrator 18.1.1, SVG Export Plug-In . SVG Version: 6.00 Build 0)  -->
<svg version="1.0" id="Layer_1" xmlns="http://www.w3.org/2000/svg" xmlns:xlink="http://www.w3.org/1999/xlink" x="0px" y="0px"
	 viewBox="0 0 15.4 20.6" enable-background="new 0 0 15.4 20.6" xml:space="preserve">
<g>
	<g id="XMLID_5_">
		<path fill="#5A5A5A" d="M7.9,20.6l-0.2-0.1C7.4,20.4,6.7,19.4,3,14l-0.2-0.3l-1.1-1.5c-0.5-0.6-0.9-1.3-1.2-2C0.1,9.4,0,8.3,0,7.5
			C0,3.4,3.4,0,7.5,0c3.9,0,7.5,3.2,7.9,7.2c0,1-0.1,1.9-0.4,2.7c-0.1,0.2-0.1,0.3-0.2,0.4c-0.2,0.4-0.4,0.9-0.7,1.3
			c0,0.1-0.1,0.2-0.2,0.3c-0.1,0.1-0.1,0.2-0.2,0.3l-2,2.8c-1.2,1.7-2.5,3.5-3.8,5.4L7.9,20.6z M7.5,0.5c-3.9,0-7,3.1-7,7
			c0,1,0.2,1.9,0.5,2.6c0.3,0.6,0.6,1.3,1.1,1.9l1.3,1.8c1.1,1.6,3.6,5.2,4.3,6.1c1.2-1.8,2.4-3.5,3.6-5.2l2-2.7
			c0-0.1,0.1-0.2,0.2-0.3c0.1-0.1,0.1-0.2,0.2-0.3c0.3-0.4,0.5-0.8,0.7-1.3c0.1-0.1,0.1-0.3,0.2-0.4c0.2-0.7,0.4-1.5,0.4-2.4
			C14.5,3.5,11.2,0.5,7.5,0.5z M7.5,11.3c-0.1,0-0.2,0-0.2,0h0c-2.2,0-3.9-1.8-3.9-3.9c0-2.2,1.8-3.9,4.1-3.9c2.2,0,3.9,1.7,3.9,3.9
			C11.3,9.6,9.6,11.3,7.5,11.3z M7.4,3.9c-2,0-3.6,1.5-3.6,3.4c0,1.9,1.5,3.4,3.4,3.4c0.1,0,0.2,0,0.2,0c1.8,0,3.4-1.5,3.4-3.5
			C10.8,5.4,9.3,3.9,7.4,3.9z"/>
	</g>
</g>
</svg>
