<?xml version="1.0" encoding="utf-8"?>
<!-- Generator: Adobe Illustrator 18.1.1, SVG Export Plug-In . SVG Version: 6.00 Build 0)  -->
<svg version="1.0" id="Layer_1" xmlns="http://www.w3.org/2000/svg" xmlns:xlink="http://www.w3.org/1999/xlink" x="0px" y="0px"
	 viewBox="0 0 408.8 408.8" enable-background="new 0 0 408.8 408.8" xml:space="preserve">
<g>
	<path fill="#5A5A5A" d="M326,172.8c-3.3,0-6,2.7-6,6v198.4c0,10.8-8.8,19.6-19.6,19.6H31.6c-10.8,0-19.6-8.8-19.6-19.6V108.4
		c0-10.8,8.8-19.6,19.6-19.6H230c3.3,0,6-2.7,6-6c0-3.3-2.7-6-6-6H31.6C14.2,76.8,0,91,0,108.4v268.8c0,17.4,14.2,31.6,31.6,31.6
		h268.8c17.4,0,31.6-14.2,31.6-31.6V178.8C332,175.5,329.3,172.8,326,172.8L326,172.8z M326,172.8"/>
	<path fill="#5A5A5A" d="M401.4,34.5L374.3,7.4C369.5,2.6,363.2,0,356.4,0c-6.7,0-13.1,2.6-17.8,7.4L154.2,191.8
		c-0.7,0.7-1.2,1.5-1.5,2.5l-20.9,67.2c-1.4,4.4-0.2,9.2,3.1,12.5c2.4,2.4,5.5,3.6,8.8,3.6c1.2,0,2.5-0.2,3.7-0.6l67.2-20.9
		c0.9-0.3,1.8-0.8,2.5-1.5L401.4,70.2c4.8-4.8,7.4-11.1,7.4-17.8C408.8,45.6,406.2,39.3,401.4,34.5L401.4,34.5z M179.7,254.4
		l-25.2-25.2l8.3-26.7l43.6,43.6L179.7,254.4z M143.7,265.6c-0.1,0-0.2,0.1-0.4-0.1c-0.2-0.2-0.1-0.3-0.1-0.4l7.2-23l16.3,16.3
		L143.7,265.6z M392.9,61.7l-177,177l-45.8-45.8l177-177c2.5-2.5,5.8-3.9,9.3-3.9c3.5,0,6.8,1.4,9.3,3.9L392.9,43
		c2.5,2.5,3.9,5.8,3.9,9.3C396.8,55.9,395.4,59.2,392.9,61.7L392.9,61.7z M392.9,61.7"/>
</g>
</svg>
