<?xml version="1.0" encoding="utf-8"?>
<!-- Generator: Adobe Illustrator 18.1.1, SVG Export Plug-In . SVG Version: 6.00 Build 0)  -->
<svg version="1.1" id="Layer_1" xmlns="http://www.w3.org/2000/svg" xmlns:xlink="http://www.w3.org/1999/xlink" x="0px" y="0px"
	 viewBox="0 0 20.74951 20.75" enable-background="new 0 0 20.74951 20.75" xml:space="preserve">
<path fill="#1867BC" d="M15.95456,9.1486c-0.13936-0.13936-0.30866-0.20921-0.50846-0.20921h-3.63628V5.30323
	c0-0.19935-0.06985-0.36876-0.20921-0.50858c-0.13936-0.13936-0.30911-0.20921-0.50846-0.20921H9.65703
	c-0.19935,0-0.36876,0.06985-0.50858,0.20921C9.00909,4.93447,8.93923,5.10387,8.93923,5.30323v3.63616H5.30307
	c-0.19934,0-0.36875,0.06985-0.50858,0.20921C4.65513,9.28842,4.58528,9.45783,4.58528,9.65718v1.43558
	c0,0.19935,0.06985,0.36864,0.20921,0.508c0.13982,0.13982,0.30923,0.20921,0.50858,0.20921h3.63616v3.63674
	c0,0.19935,0.06986,0.36864,0.20922,0.50846c0.13981,0.13936,0.30923,0.20921,0.50858,0.20921h1.43512
	c0.19981,0,0.3691-0.06985,0.50846-0.20921c0.13982-0.13982,0.20921-0.30912,0.20921-0.50846v-3.63674h3.63674
	c0.19935,0,0.36864-0.06939,0.508-0.20921c0.13982-0.13936,0.20967-0.30865,0.20967-0.508V9.65718
	C16.16389,9.45783,16.09438,9.28842,15.95456,9.1486L15.95456,9.1486z"/>
<g>
	<path fill="#1867BC" d="M10.375,20.75C4.6543,20.75,0,16.0957,0,10.375S4.6543,0,10.375,0
		c5.72021,0,10.37451,4.6543,10.37451,10.375S16.09521,20.75,10.375,20.75z M10.375,0.75c-5.30713,0-9.625,4.31787-9.625,9.625
		C0.75,15.68262,5.06787,20,10.375,20s9.62451-4.31738,9.62451-9.625C19.99951,5.06787,15.68213,0.75,10.375,0.75z"/>
</g>
</svg>
