<?xml version="1.0" encoding="utf-8"?>
<!-- Generator: Adobe Illustrator 18.1.1, SVG Export Plug-In . SVG Version: 6.00 Build 0)  -->
<svg version="1.0" id="Layer_1" xmlns="http://www.w3.org/2000/svg" xmlns:xlink="http://www.w3.org/1999/xlink" x="0px" y="0px"
	 viewBox="0 0 42.9 42.9" enable-background="new 0 0 42.9 42.9" xml:space="preserve">
<g>
	<path fill="#7B7B7B" d="M42.9,39.5L30.2,26.8c2.1-2.8,3.4-6.3,3.4-10C33.6,7.5,26.1,0,16.8,0C7.5,0,0,7.5,0,16.8
		c0,9.3,7.5,16.8,16.8,16.8c3.8,0,7.2-1.3,10-3.4l12.7,12.7L42.9,39.5z M1.6,16.8c0-8.4,6.8-15.2,15.2-15.2C25.2,1.6,32,8.4,32,16.8
		C32,25.2,25.2,32,16.8,32C8.4,32,1.6,25.2,1.6,16.8L1.6,16.8z M28.5,28.9c0.1-0.1,0.3-0.3,0.4-0.4c0.1-0.1,0.2-0.2,0.4-0.4
		l11.4,11.4l-1.1,1.1L28.1,29.2C28.2,29.1,28.3,29,28.5,28.9L28.5,28.9z M28.5,28.9"/>
</g>
</svg>
