<?xml version="1.0" encoding="utf-8"?>
<!-- Generator: Adobe Illustrator 18.1.1, SVG Export Plug-In . SVG Version: 6.00 Build 0)  -->
<svg version="1.0" id="Layer_1" xmlns="http://www.w3.org/2000/svg" xmlns:xlink="http://www.w3.org/1999/xlink" x="0px" y="0px"
	 viewBox="0 0 123.2 140.7" enable-background="new 0 0 123.2 140.7" xml:space="preserve">
<path fill="none" stroke="#5A5A5A" stroke-width="5" stroke-miterlimit="10" d="M113.8,2.5H9.3c-3.8,0-6.8,3.1-6.8,6.8v104.8
	c0,3.8,3.1,6.8,6.8,6.8h4.9v8.1c0,0.2,0,0.4,0,0.6c0,4.7,3.8,8.5,8.5,8.5c4.7,0,8.5-3.8,8.5-8.5c0-0.2,0-0.4,0-0.6V121H92v8.1
	c0,0.2,0,0.4,0,0.6c0,4.7,3.8,8.5,8.5,8.5c4.7,0,8.5-3.8,8.5-8.5c0-0.2,0-0.4,0-0.6V121h4.9c3.8,0,6.8-3.1,6.8-6.8V9.3
	C120.7,5.6,117.6,2.5,113.8,2.5z M61.5,107.4c-11.2,0-21.3-5.1-28-13.1c-0.6-0.8,0.1-1.9,1-1.6c8.6,2.5,17.6,3.8,27,3.8
	c9.4,0,18.4-1.3,27-3.8c1-0.3,1.7,0.9,1,1.6C82.9,102.3,72.8,107.4,61.5,107.4z M109.2,36.7c-4.7,0-8.5,3.8-8.5,8.5s3.8,8.5,8.5,8.5
	v21.7c0,0.5-0.4,1-1,1h-93c-0.5,0-1-0.4-1-1V53.6c4.7,0,8.5-3.8,8.5-8.5s-3.8-8.5-8.5-8.5V14.9c0-0.5,0.4-1,1-1h93c0.5,0,1,0.4,1,1
	V36.7z"/>
</svg>
