<?xml version="1.0" encoding="utf-8"?>
<!-- Generator: Adobe Illustrator 18.1.1, SVG Export Plug-In . SVG Version: 6.00 Build 0)  -->
<svg version="1.0" id="Layer_1" xmlns="http://www.w3.org/2000/svg" xmlns:xlink="http://www.w3.org/1999/xlink" x="0px" y="0px"
	 viewBox="0 0 20.5 20.4" enable-background="new 0 0 20.5 20.4" xml:space="preserve">
<g>
	<path fill="#5A5A5A" d="M6.8,2.5V1.7h0.4c0.1,0,0.1,0,0.1-0.1V0.1C7.4,0,7.3,0,7.3,0H2.1C2.1,0,2,0,2,0.1v1.5c0,0.1,0,0.1,0.1,0.1
		h0.4v0.7C1.1,2.6,0,3.9,0,5.3v2.3C0,8,0.2,8.3,0.4,8.5C0.2,8.8,0,9.1,0,9.4v3.9c0,0.4,0.2,0.7,0.4,0.9C0.2,14.5,0,14.8,0,15.2v3.9
		c0,0.7,0.6,1.3,1.3,1.3h6.8c0.7,0,1.3-0.6,1.3-1.3v-3.9c0-0.4-0.2-0.7-0.4-0.9c0.2-0.2,0.4-0.6,0.4-0.9V9.4c0-0.4-0.2-0.7-0.4-0.9
		C9.2,8.3,9.4,8,9.4,7.6V5.3C9.4,3.9,8.3,2.6,6.8,2.5z M8.7,15.2v3.9c0,0.3-0.3,0.6-0.6,0.6H1.3c-0.3,0-0.6-0.3-0.6-0.6v-3.9
		c0-0.3,0.3-0.6,0.6-0.6h6.8C8.4,14.6,8.7,14.9,8.7,15.2z M8.7,9.4v3.9c0,0.3-0.3,0.6-0.6,0.6H1.3c-0.3,0-0.6-0.3-0.6-0.6V9.4
		c0-0.3,0.3-0.6,0.6-0.6h6.8C8.4,8.9,8.7,9.1,8.7,9.4z M8.7,7.6c0,0.3-0.3,0.6-0.6,0.6H1.3C1,8.2,0.7,7.9,0.7,7.6V5.3
		c0-1.2,1-2.2,2.2-2.2h0.4V1.7h2.9v1.4h0.4c1.2,0,2.2,1,2.2,2.2V7.6z"/>
	<path fill="#5A5A5A" d="M20.5,7.6V5.3c0-1.5-1.1-2.7-2.5-2.9V1.7h0.4c0.1,0,0.1,0,0.1-0.1V0.1c0-0.1,0-0.1-0.1-0.1h-5.1
		c-0.1,0-0.1,0-0.1,0.1v1.5c0,0.1,0,0.1,0.1,0.1h0.4v0.7c-1.4,0.2-2.5,1.4-2.5,2.9v2.3c0,0.4,0.2,0.7,0.4,0.9
		c-0.2,0.2-0.4,0.6-0.4,0.9v3.9c0,0.4,0.2,0.7,0.4,0.9c-0.2,0.2-0.4,0.6-0.4,0.9v3.9c0,0.7,0.6,1.3,1.3,1.3h6.8
		c0.7,0,1.3-0.6,1.3-1.3v-3.9c0-0.4-0.2-0.7-0.4-0.9c0.2-0.2,0.4-0.6,0.4-0.9V9.4c0-0.4-0.2-0.7-0.4-0.9C20.3,8.3,20.5,8,20.5,7.6z
		 M19.8,15.2v3.9c0,0.3-0.3,0.6-0.6,0.6h-6.8c-0.3,0-0.6-0.3-0.6-0.6v-3.9c0-0.3,0.3-0.6,0.6-0.6h6.8C19.5,14.6,19.8,14.9,19.8,15.2
		z M19.8,9.4v3.9c0,0.3-0.3,0.6-0.6,0.6h-6.8c-0.3,0-0.6-0.3-0.6-0.6V9.4c0-0.3,0.3-0.6,0.6-0.6h6.8C19.5,8.9,19.8,9.1,19.8,9.4z
		 M12.4,8.2c-0.3,0-0.6-0.3-0.6-0.6V5.3c0-1.2,1-2.2,2.2-2.2h0.4V1.7h2.9v1.4h0.4c1.2,0,2.2,1,2.2,2.2v2.3c0,0.3-0.3,0.6-0.6,0.6
		H12.4z"/>
</g>
</svg>
