<?xml version="1.0" encoding="utf-8"?>
<!-- Generator: Adobe Illustrator 18.1.1, SVG Export Plug-In . SVG Version: 6.00 Build 0)  -->
<svg version="1.0" id="Layer_1" xmlns="http://www.w3.org/2000/svg" xmlns:xlink="http://www.w3.org/1999/xlink" x="0px" y="0px"
	 viewBox="0 0 232.1 168.2" enable-background="new 0 0 232.1 168.2" xml:space="preserve">
<g>
	<path fill="#5A5A5A" d="M4,54.6c-1,0-2-0.4-2.7-1.2c-1.6-1.6-1.6-3.9,0-5.5C32.1,17,72.8,0,116,0c43.8,0,83.5,16.5,114.8,47.8
		c1.4,1.4,1.6,3.2,0.6,4.7c-1.5,0.2-2.8,0.6-4,0.9c-0.5,0.2-1.3,0.4-1.5,0.4c-2.5,0-3.2-0.3-3.4-0.5C193.7,24.5,154.4,7.9,114.6,7.9
		c-41.1,0-80.4,16.6-108,45.5C5.9,54.1,5,54.6,4,54.6z"/>
	<path fill="#5A5A5A" d="M38.8,90.7c-1,0-2-0.4-2.8-1.2c-0.8-0.8-1.2-1.7-1.2-2.8s0.4-2,1.2-2.8c20.3-20.3,47.5-31.5,76.7-31.5
		c29.2,0,56.8,11.2,77.8,31.5c1.6,1.6,1.6,3.9,0,5.5L190,90c-0.5,0-1,0-1.6,0c-2.5,0-3.3-0.3-3.5-0.5c-18.7-18.7-44-29.1-71.2-29.1
		c-27.2,0-52.8,10.3-72.2,29C40.7,90.3,39.8,90.7,38.8,90.7z"/>
	<path fill="#5A5A5A" d="M77.7,128.3c-1,0-2-0.4-2.7-1.2c-1.6-1.6-1.6-3.9,0-5.5c10.9-10.9,25.1-16.9,40.2-16.9
		c15,0,28.9,6,39.1,16.8c1.5,1.5,1.7,3.4,0.6,4.9c-0.7,0.2-1.3,0.5-1.8,0.8c-0.3,0.1-0.7,0.3-0.8,0.4c-2.5,0-3.2-0.3-3.4-0.5
		c-9.3-9.3-21.6-14.5-34.7-14.5c-13.1,0-25,5.1-33.7,14.5C79.7,127.9,78.7,128.3,77.7,128.3z"/>
</g>
<path fill="#5A5A5A" d="M109.1,155.7c-1.4,1.4-1.4,4.2-1.4,5.6c0,1.4,0,2.8,1.4,4.2c1.4,1.4,4.2,2.8,5.6,2.8c1.4,0,4.2-1.4,5.6-2.8
	c0,0,1.4-1.4,1.4-4.2c0-2.8-1.4-4.2-2.8-5.6C116,152.9,111.9,152.9,109.1,155.7L109.1,155.7z M109.1,155.7"/>
</svg>
