<?xml version="1.0" encoding="utf-8"?>
<!-- Generator: Adobe Illustrator 17.1.0, SVG Export Plug-In . SVG Version: 6.00 Build 0)  -->
<!DOCTYPE svg PUBLIC "-//W3C//DTD SVG 1.1//EN" "http://www.w3.org/Graphics/SVG/1.1/DTD/svg11.dtd">
<svg version="1.1" id="Layer_1" xmlns="http://www.w3.org/2000/svg" xmlns:xlink="http://www.w3.org/1999/xlink" x="0px" y="0px"
	 viewBox="0 0 16.2 21.5" style="enable-background:new 0 0 16.2 21.5;" xml:space="preserve">
<style type="text/css">
	.st0{fill:none;stroke:#B2B2B2;stroke-width:1.3;stroke-miterlimit:10;}
</style>
<g>
	<path id="XMLID_1_" class="st0" d="M7.9,0.6C3.8,0.6,0.6,4,0.6,7.9c0,0.9,0.1,1.9,0.5,2.7c0.3,0.6,0.6,1.3,1.1,1.9
		c0.4,0.5,0.8,1,1.1,1.5c1.4,2,4.5,6.5,4.7,6.6c1.3-1.9,2.5-3.7,3.8-5.5c0.6-0.9,1.3-1.8,1.9-2.7c0.1-0.3,0.3-0.4,0.4-0.6
		c0.4-0.5,0.6-1.1,0.9-1.7c0.3-0.8,0.4-1.7,0.4-2.5C15.2,4,11.9,0.6,7.9,0.6z M7.8,4.1c2.2,0,3.7,1.7,3.7,3.7c0,2-1.7,3.8-3.8,3.7
		c-2,0-3.7-1.7-3.7-3.7S5.6,4.1,7.8,4.1z"/>
</g>
</svg>
