<?xml version="1.0" encoding="utf-8"?>
<!-- Generator: Adobe Illustrator 17.1.0, SVG Export Plug-In . SVG Version: 6.00 Build 0)  -->
<!DOCTYPE svg PUBLIC "-//W3C//DTD SVG 1.1//EN" "http://www.w3.org/Graphics/SVG/1.1/DTD/svg11.dtd">
<svg version="1.1" id="Layer_1" xmlns="http://www.w3.org/2000/svg" xmlns:xlink="http://www.w3.org/1999/xlink" x="0px" y="0px"
	 viewBox="0 0 20 20" style="enable-background:new 0 0 20 20;" xml:space="preserve">
<style type="text/css">
	.st0{fill:#B2B2B2;}
</style>
<g>
	<path class="st0" d="M13.2,15.6c0.8,0,1.6,0,2.4,0c0-0.5,0-1.2,0-1.7c-0.8,0-1.6,0-2.4,0C13.2,14.5,13.2,15.1,13.2,15.6z"/>
	<path class="st0" d="M8.8,15.6c0.8,0,1.6,0,2.4,0c0-0.5,0-1.2,0-1.7c-0.8,0-1.6,0-2.4,0C8.8,14.4,8.8,15.1,8.8,15.6z"/>
	<path class="st0" d="M4.5,15.6c0.8,0,1.6,0,2.4,0c0-0.5,0-1.2,0-1.7c-0.9,0-1.7,0-2.4,0C4.5,14.5,4.5,15.1,4.5,15.6z"/>
	<path class="st0" d="M13.2,12.4c0.9,0,1.6,0,2.4,0c0-0.5,0-1.2,0-1.7c-0.8,0-1.6,0-2.4,0C13.2,11.3,13.2,11.9,13.2,12.4z"/>
	<path class="st0" d="M8.8,12.5c0.8,0,1.6,0,2.4,0c0-0.5,0-1.2,0-1.7c-0.8,0-1.6,0-2.4,0C8.8,11.5,8.8,12,8.8,12.5z"/>
	<path class="st0" d="M6.8,10.8c-0.8,0-1.6,0-2.4,0c0,0.7,0,1.2,0,1.7c0.8,0,1.6,0,2.4,0C6.8,12,6.8,11.3,6.8,10.8z"/>
	<path class="st0" d="M13.2,9.3c0.8,0,1.6,0,2.4,0c0-0.5,0-1.2,0-1.7c-0.8,0-1.6,0-2.4,0C13.2,8.3,13.2,8.8,13.2,9.3z"/>
	<path class="st0" d="M8.8,9.3c0.8,0,1.6,0,2.4,0c0-0.5,0-1.1,0-1.7c-0.8,0-1.6,0-2.4,0C8.8,8.3,8.8,8.8,8.8,9.3z"/>
	<path class="st0" d="M4.5,9.3c0.8,0,1.6,0,2.4,0c0-0.7,0-1.2,0-1.7c-0.9,0-1.7,0-2.4,0C4.5,8.3,4.5,8.8,4.5,9.3z"/>
	<path class="st0" d="M17.7,1.9c-0.7,0-1.3,0-1.9,0c-0.3-0.7-0.4-1.3-0.7-1.9c0,0-0.1,0-0.3,0c-0.3,0.7-0.5,1.2-0.9,2
		c-1.1,0-2.3,0-3.3,0c-0.3-0.7-0.4-1.3-0.7-1.9c0,0-0.1,0-0.3,0C9.6,0.8,9.3,1.3,9.1,2C8,2,6.8,2,5.7,2C5.5,1.3,5.3,0.7,5.1,0.1
		c0,0-0.1,0-0.3,0C4.7,0.7,4.4,1.2,4.1,2C3.6,2,2.9,2,2.3,2C1.2,1.9,0.4,2.3,0,3.3c0,5.1,0,10.3,0,15.3C0.4,19.7,1.2,20,2.4,20
		c5.1,0,10.3,0,15.3,0c1.1,0,1.9-0.3,2.3-1.5c0-5.1,0-10.3,0-15.3C19.6,2.1,18.8,1.7,17.7,1.9z M18.9,4.1c0,3.1,0,6.3,0,9.3
		c0,1.6,0,3.1,0,4.7c0,0.5-0.1,0.8-0.8,0.8c-5.5,0-10.8,0-16.1,0c-0.5,0-0.8-0.1-0.8-0.7c0-4.8,0-9.5,0-14.3c0-0.5,0.1-0.7,0.7-0.7
		c0.1,0,0.1,0,0.3,0c0.7,0,1.5,0,2.3,0c0,0.4-0.1,0.8,0,1.2c0.1,0.3,0.4,0.4,0.5,0.7c0.1-0.3,0.4-0.4,0.5-0.7c0.1-0.3,0-0.8,0-1.2H6
		c1.2,0,2.3,0,3.3,0c0,0.4-0.1,0.8,0,1.2c0.1,0.3,0.4,0.4,0.5,0.7c0.1-0.3,0.4-0.4,0.5-0.7c0.1-0.3,0-0.8,0-1.2h0.5
		c0.3,0,0.5,0,0.8,0c0.3,0,0.5,0,0.8,0c0.5,0,1.2,0,1.9,0c0,0.4-0.1,0.8,0,1.2c0.1,0.3,0.4,0.4,0.5,0.7c0.1-0.3,0.4-0.4,0.5-0.7
		c0.1-0.3,0-0.8,0-1.2h0.3c0.3,0,0.5,0,0.8,0c0.7,0,1.2,0,1.9,0C19.1,3.3,18.9,3.7,18.9,4.1z"/>
</g>
</svg>
