<?xml version="1.0" encoding="utf-8"?>
<!-- Generator: Adobe Illustrator 18.1.1, SVG Export Plug-In . SVG Version: 6.00 Build 0)  -->
<svg version="1.0" id="Layer_1" xmlns="http://www.w3.org/2000/svg" xmlns:xlink="http://www.w3.org/1999/xlink" x="0px" y="0px"
	 viewBox="0 0 97.8 93" enable-background="new 0 0 97.8 93" xml:space="preserve">
<g>
	<path fill="#ACE543" stroke="#B2B2B2" stroke-width="4" stroke-miterlimit="10" d="M76.7,82.8H15c-6.9,0-13-6-13-13V23.2
		c0-7.3,6-13,13-13h61.8c7.3,0,13,6,13,13v46.2C89.7,76.7,84.1,82.8,76.7,82.8z"/>
	<g>
		<path fill="#ACE543" stroke="#B2B2B2" stroke-width="4" stroke-miterlimit="10" d="M82.8,21H40.9c-4.3,0-7.8-3.9-7.8-8.2v-2.6
			c0-4.3,3.5-8.2,8.2-8.2h41.9c4.3,0,8.2,3.5,8.2,8.2v2.6C91,17.1,87.5,21,82.8,21z"/>
		<path fill="#ACE543" stroke="#B2B2B2" stroke-width="4" stroke-miterlimit="10" d="M82.8,91H40.9c-4.3,0-8.2-3.5-8.2-8.2v-2.6
			c0-4.3,3.5-8.2,8.2-8.2h41.9c4.3,0,8.2,3.5,8.2,8.2v2.6C91,87.5,87.5,91,82.8,91z"/>
	</g>
	<path fill="#ACE543" stroke="#B2B2B2" stroke-width="4" stroke-miterlimit="10" d="M89.7,77.6h-2.2c-3.5,0-6-2.6-6-6V23.2
		c0-3.5,2.6-6,6-6h2.2c3.5,0,6,2.6,6,6v48.4C96.2,75,93.2,77.6,89.7,77.6z"/>
</g>
</svg>
