<?xml version="1.0" encoding="utf-8"?>
<!-- Generator: Adobe Illustrator 18.0.0, SVG Export Plug-In . SVG Version: 6.00 Build 0)  -->
<!DOCTYPE svg PUBLIC "-//W3C//DTD SVG 1.1//EN" "http://www.w3.org/Graphics/SVG/1.1/DTD/svg11.dtd">
<svg version="1.1" id="Capa_1" xmlns="http://www.w3.org/2000/svg" xmlns:xlink="http://www.w3.org/1999/xlink" x="0px" y="0px"
	 viewBox="0 0 20 20" enable-background="new 0 0 20 20" xml:space="preserve">
<g>
	<g id="steering_x5F_wheel">
		<path fill="#353535" d="M0,10c0,5.5,4.5,10,10,10s10-4.5,10-10S15.5,0,10,0S0,4.5,0,10z M2.5,10c0-3.2,2.1-6,5-7V17
			C4.6,16,2.5,13.2,2.5,10z M11.2,10c0,0.7-0.6,1.2-1.2,1.2S8.8,10.7,8.8,10S9.3,8.8,10,8.8S11.2,9.3,11.2,10z M10,17.5
			c0-3.4,3.3-6.2,7.4-6.2C16.8,14.8,13.7,17.5,10,17.5z M17.4,8.7c-4.1,0-7.4-2.8-7.4-6.2C13.7,2.5,16.8,5.2,17.4,8.7z"/>
	</g>
</g>
</svg>
